<svg id="Layer_1" data-name="Layer 1" xmlns="http://www.w3.org/2000/svg" viewBox="0 0 409.28 397.43">
  <title>mindfulness-symbol-blue</title>
  <g>
    <path d="M479.58,297.49a16.77,16.77,0,1,0-16.77-16.77,16.77,16.77,0,0,0,16.77,16.77h0Z" transform="translate(-275 -82)" style="fill: #05779c"/>
    <path d="M542.8,229.67c33.13,2.71,62.26,7.53,85.24,13.86,34.75,9.56,56.24,22.72,56.24,37.2s-21.49,27.63-56.24,37.2c-23,6.32-52.11,11.14-85.24,13.85-1.19.1-2.56,0.21-3.9,0.29-0.76,0-1.54.1-2.21,0.1a4.82,4.82,0,0,1-1.75-.26,2.52,2.52,0,0,1-1.65-2,2.45,2.45,0,0,1,1.05-2.24,7.68,7.68,0,0,1,3.45-.84l4-.48a370.65,370.65,0,0,0,53.45-10.12c32.84-9,53.16-21.57,53.16-35.47s-20.32-26.44-53.16-35.47a370.53,370.53,0,0,0-53.45-10.12l-4-.48a7.69,7.69,0,0,1-3.45-.84,2.44,2.44,0,0,1-1.05-2.24,2.52,2.52,0,0,1,1.65-2,4.81,4.81,0,0,1,1.75-.26c0.68,0,1.45.05,2.21,0.1,1.34,0.08,2.72.2,3.9,0.29h0Z" transform="translate(-275 -82)" style="fill: #05779c"/>
    <path d="M434.78,309.71c-18.55-1.63-34.21-4.31-46-7.77-18.56-5.44-30-12.95-30-21.22s11.48-15.78,30-21.22c11.79-3.46,27.45-6.14,46-7.77a3.31,3.31,0,0,1,2.33.62,2.25,2.25,0,0,1,1,1.85v0.23a2.59,2.59,0,0,1-2.22,2.4c-4.09.91-8.07,1.94-11.91,3.06-18.13,5.31-29.35,12.68-29.35,20.83s11.22,15.51,29.35,20.82c3.84,1.13,7.82,2.15,11.91,3.06a2.59,2.59,0,0,1,2.22,2.4v0.24a2.25,2.25,0,0,1-1,1.85,3.32,3.32,0,0,1-2.33.62h0Z" transform="translate(-275 -82)" style="fill: #05779c"/>
    <path d="M524.37,251.72c18.55,1.63,34.21,4.31,46,7.77,18.56,5.44,30,13,30,21.22s-11.49,15.78-30,21.22c-11.79,3.46-27.45,6.14-46,7.77a3.32,3.32,0,0,1-2.33-.62,2.25,2.25,0,0,1-1-1.85V307a2.59,2.59,0,0,1,2.22-2.4c4.09-.91,8.07-1.94,11.91-3.06,18.13-5.32,29.35-12.68,29.35-20.82s-11.22-15.51-29.35-20.83c-3.84-1.13-7.82-2.15-11.91-3.06a2.59,2.59,0,0,1-2.22-2.4V254.2a2.24,2.24,0,0,1,1-1.85,3.31,3.31,0,0,1,2.33-.62h0Z" transform="translate(-275 -82)" style="fill: #05779c"/>
    <path d="M416.49,229.67c-33.13,2.71-62.26,7.53-85.24,13.86-34.75,9.56-56.24,22.72-56.24,37.2s21.49,27.63,56.24,37.2c23,6.32,52.11,11.14,85.24,13.85,1.19,0.1,2.56.21,3.9,0.29,0.76,0,1.54.1,2.21,0.1a4.82,4.82,0,0,0,1.75-.26,2.51,2.51,0,0,0,1.65-2,2.44,2.44,0,0,0-1.05-2.24,7.68,7.68,0,0,0-3.45-.84l-4-.48a370.64,370.64,0,0,1-53.45-10.12c-32.84-9-53.16-21.57-53.16-35.47s20.32-26.44,53.16-35.47a370.52,370.52,0,0,1,53.45-10.12l4-.48a7.69,7.69,0,0,0,3.45-.84,2.44,2.44,0,0,0,1.05-2.24,2.51,2.51,0,0,0-1.65-2,4.81,4.81,0,0,0-1.75-.26c-0.68,0-1.45.05-2.21,0.1-1.34.08-2.72,0.2-3.9,0.29h0Z" transform="translate(-275 -82)" style="fill: #05779c"/>
    <path d="M502.68,148.75a81.48,81.48,0,0,0,8-14C522.44,107.44,505.55,82,479.57,82s-42.87,25.44-31.13,52.78a76.83,76.83,0,0,0,8,14c7.72,10.89,15.2,21.59,23.1,32.56,8.09-11,15.57-21.68,23.1-32.56h0Z" transform="translate(-275 -82)" style="fill: #05779c;fill-rule: evenodd"/>
    <path d="M468.9,233.34a14.88,14.88,0,0,1-2.78-5.9c-1.38-6,.22-10.33,2.64-14.39l10.81-16.48,10.81,16.48c2.42,4.06,4,8.41,2.64,14.39a14.87,14.87,0,0,1-2.78,5.9,13.6,13.6,0,0,1-21.35,0h0Z" transform="translate(-275 -82)" style="fill: #05779c;fill-rule: evenodd"/>
    <path d="M502.68,412.68a81.44,81.44,0,0,1,8,14c11.74,27.34-5.16,52.78-31.13,52.78S436.71,454,448.44,426.65a76.79,76.79,0,0,1,8-14c7.72-10.89,15.2-21.59,23.1-32.56,8.09,11,15.57,21.68,23.1,32.56h0Z" transform="translate(-275 -82)" style="fill: #05779c;fill-rule: evenodd"/>
    <path d="M468.9,328.09a14.88,14.88,0,0,0-2.78,5.9c-1.38,6,.22,10.33,2.64,14.39l10.81,16.49,10.81-16.49c2.42-4.06,4-8.41,2.64-14.39a14.87,14.87,0,0,0-2.78-5.9,13.6,13.6,0,0,0-21.35,0h0Z" transform="translate(-275 -82)" style="fill: #05779c;fill-rule: evenodd"/>
  </g>
</svg>
